<?xml version="1.0" standalone="no"?>
<!DOCTYPE svg PUBLIC "-//W3C//DTD SVG 20010904//EN"
 "http://www.w3.org/TR/2001/REC-SVG-20010904/DTD/svg10.dtd">
<svg version="1.0" xmlns="http://www.w3.org/2000/svg"
 width="500.000000pt" height="500.000000pt" viewBox="0 0 500.000000 500.000000"
 preserveAspectRatio="xMidYMid meet">

<g transform="translate(0.000000,500.000000) scale(0.100000,-0.100000)"
fill="#000000" stroke="none">
<path d="M3508 4720 c-110 -13 -226 -48 -344 -105 -113 -53 -274 -156 -310
-197 l-19 -22 30 21 c44 30 180 96 260 126 164 62 422 104 566 93 260 -21 470
-149 569 -347 44 -89 46 -64 2 36 -64 148 -156 244 -303 319 -146 73 -279 96
-451 76z"/>
<path d="M1335 4625 c-124 -20 -187 -40 -277 -87 -181 -94 -332 -292 -387
-509 -119 -468 -99 -1149 50 -1689 29 -108 105 -325 154 -440 76 -181 301
-544 483 -780 213 -275 541 -595 727 -708 66 -40 187 -80 271 -89 l69 -8 13
-60 c15 -66 40 -100 90 -122 31 -13 38 -12 78 7 51 25 64 44 79 120 l12 55 74
16 c128 27 155 38 221 86 241 176 589 530 783 795 121 166 323 486 381 603 41
84 118 294 111 302 -2 2 -16 -30 -32 -69 -56 -148 -149 -310 -326 -570 -135
-198 -202 -282 -355 -445 -188 -202 -555 -517 -669 -575 -40 -21 -154 -52
-162 -45 -3 4 6 68 21 144 58 309 56 365 -20 522 -40 82 -45 98 -39 135 10 56
20 73 73 129 l46 47 -252 0 c-139 0 -252 -4 -252 -8 0 -4 19 -26 41 -47 81
-78 89 -146 31 -257 -52 -98 -66 -161 -59 -267 5 -72 39 -232 64 -297 12 -32
-15 -9 -92 81 -165 192 -208 285 -208 445 0 139 30 213 128 322 l50 56 290 5
c244 4 316 9 455 30 91 14 188 33 216 41 65 20 157 80 214 141 l45 47 -50 -37
c-117 -88 -255 -134 -481 -159 -229 -25 -339 -28 -541 -17 l-191 12 -136 69
c-75 37 -164 88 -199 113 -74 53 -184 153 -177 160 3 3 28 1 55 -4 62 -11 338
-29 461 -29 89 0 93 1 130 32 22 18 70 69 107 115 37 46 72 83 76 83 4 0 40
-40 79 -89 40 -48 90 -101 112 -116 l40 -28 182 7 c289 12 495 39 590 79 71
31 189 179 302 383 36 65 66 122 66 127 0 4 -7 10 -15 13 -27 11 -16 24 21 24
26 0 43 -8 66 -31 28 -27 30 -34 25 -77 -14 -116 -170 -433 -452 -917 -169
-290 -120 -231 95 112 238 381 363 614 491 908 33 77 56 114 100 160 61 66
107 146 135 241 25 80 24 260 0 369 -32 142 -107 282 -179 335 -56 41 -66 38
-17 -6 141 -128 195 -524 98 -721 -57 -116 -203 -226 -358 -269 -51 -15 -100
-18 -235 -18 -155 0 -178 3 -258 27 -71 22 -144 51 -189 74 -5 2 -8 1 -8 -2 0
-22 318 -143 433 -165 34 -7 57 -17 57 -24 0 -44 -242 -313 -320 -356 -17 -10
-76 -15 -187 -18 -136 -4 -167 -2 -187 11 -24 16 -256 270 -256 281 0 3 14 13
31 21 28 15 34 15 64 1 43 -21 134 -21 163 0 53 37 3 94 -82 94 -75 0 -112
-14 -204 -75 -93 -61 -124 -70 -223 -63 -77 6 -103 22 -112 68 -4 16 -2 100 3
187 5 87 14 334 21 550 14 438 11 484 -43 585 -17 31 -57 83 -91 115 -33 31
-55 59 -48 61 45 15 55 95 21 162 -44 87 -373 291 -562 349 -140 42 -301 50
-441 20 -74 -16 -74 -7 0 33 113 60 291 88 429 68 139 -20 273 -75 422 -173
45 -30 82 -51 82 -47 0 15 -162 169 -214 204 -184 122 -411 168 -641 131z
m359 -434 c112 -52 273 -161 239 -161 -4 0 -39 7 -78 15 -38 8 -71 12 -73 10
-2 -2 10 -10 26 -19 45 -23 142 -116 174 -165 41 -65 38 -104 -13 -166 -69
-85 -58 -81 -141 -47 -191 79 -474 94 -617 31 -73 -32 -75 -31 -67 64 8 101
26 173 65 252 39 79 79 125 143 167 72 47 101 56 187 57 65 1 82 -3 155 -38z
m-267 -741 c62 -7 167 -9 283 -4 l185 6 24 -26 c14 -14 22 -28 20 -31 -11 -10
-157 -36 -261 -45 -132 -11 -282 1 -384 31 -63 19 -73 25 -88 55 -28 59 -24
63 53 43 38 -10 114 -23 168 -29z m572 -115 c36 -41 55 -105 47 -157 -29 -179
-159 -293 -395 -348 -160 -36 -166 -44 -155 -180 6 -64 4 -84 -10 -104 -19
-31 -71 -46 -154 -46 l-62 0 -65 88 c-36 48 -72 101 -80 119 -29 60 -19 129
45 321 53 158 60 189 60 257 0 70 2 76 18 70 183 -77 439 -79 642 -6 73 26 73
26 109 -14z"/>
<path d="M3460 4416 c-97 -18 -163 -42 -290 -107 -136 -69 -279 -161 -337
-217 -62 -61 -82 -153 -42 -193 18 -18 29 -21 70 -16 63 8 86 21 199 112 122
99 194 148 289 196 190 95 452 131 584 80 50 -19 160 -96 210 -145 26 -26 47
-44 47 -40 0 4 -16 36 -36 71 -47 84 -127 162 -209 202 -126 62 -327 86 -485
57z"/>
<path d="M4225 4004 c19 -45 18 -162 -4 -232 -27 -89 -56 -132 -111 -161 l-45
-23 40 6 c97 14 157 111 159 256 1 67 -19 156 -37 167 -7 4 -8 0 -2 -13z"/>
<path d="M3391 3709 c-116 -24 -221 -67 -294 -119 -88 -63 -107 -112 -49 -124
15 -3 120 -11 234 -17 342 -18 602 23 705 114 l35 31 -39 23 c-83 52 -156 84
-224 98 -97 21 -253 18 -368 -6z"/>
<path d="M3907 3455 c-101 -72 -243 -106 -437 -107 -138 0 -274 18 -396 52
-35 9 -64 16 -64 14 0 -10 113 -59 183 -80 159 -48 382 -50 528 -5 72 23 167
81 213 130 37 39 33 38 -27 -4z"/>
<path d="M1830 1761 c0 -9 141 -56 201 -65 20 -4 105 -13 190 -21 369 -36 812
-2 979 74 l45 21 -190 -8 c-210 -8 -1167 -6 -1202 3 -13 3 -23 1 -23 -4z"/>
</g>
</svg>
