<svg width="37" height="33" viewBox="0 0 37 33" fill="none" xmlns="http://www.w3.org/2000/svg">
<path d="M18.5 2.0625C19.7266 2.0625 20.903 2.4971 21.7704 3.27068C22.6377 4.04427 23.125 5.09348 23.125 6.1875V14.4375H13.875V6.1875C13.875 5.09348 14.3623 4.04427 15.2296 3.27068C16.097 2.4971 17.2734 2.0625 18.5 2.0625ZM25.4375 14.4375V6.1875C25.4375 4.54647 24.7066 2.97266 23.4056 1.81228C22.1045 0.651895 20.3399 0 18.5 0C16.6601 0 14.8955 0.651895 13.5944 1.81228C12.2934 2.97266 11.5625 4.54647 11.5625 6.1875V14.4375C10.3359 14.4375 9.15949 14.8721 8.29213 15.6457C7.42478 16.4193 6.9375 17.4685 6.9375 18.5625V28.875C6.9375 29.969 7.42478 31.0182 8.29213 31.7918C9.15949 32.5654 10.3359 33 11.5625 33H25.4375C26.6641 33 27.8405 32.5654 28.7079 31.7918C29.5752 31.0182 30.0625 29.969 30.0625 28.875V18.5625C30.0625 17.4685 29.5752 16.4193 28.7079 15.6457C27.8405 14.8721 26.6641 14.4375 25.4375 14.4375ZM11.5625 16.5H25.4375C26.0508 16.5 26.639 16.7173 27.0727 17.1041C27.5064 17.4909 27.75 18.0155 27.75 18.5625V28.875C27.75 29.422 27.5064 29.9466 27.0727 30.3334C26.639 30.7202 26.0508 30.9375 25.4375 30.9375H11.5625C10.9492 30.9375 10.361 30.7202 9.92732 30.3334C9.49364 29.9466 9.25 29.422 9.25 28.875V18.5625C9.25 18.0155 9.49364 17.4909 9.92732 17.1041C10.361 16.7173 10.9492 16.5 11.5625 16.5Z" fill="#4B494C"/>
</svg>
