<svg width="34" height="34" viewBox="0 0 34 34" fill="none" xmlns="http://www.w3.org/2000/svg">
<path d="M11.3433 3.37875C9.31939 3.93653 7.30926 4.54304 5.31464 5.19775C5.1325 5.25675 4.9706 5.36572 4.84737 5.51224C4.72414 5.65876 4.64454 5.83695 4.61764 6.0265C3.44039 14.8601 6.16039 21.3053 9.40526 25.551C10.7791 27.3666 12.4173 28.966 14.2651 30.2961C15.0004 30.8146 15.6506 31.1886 16.1628 31.4287C16.4178 31.5499 16.626 31.6306 16.7854 31.6795C16.8551 31.704 16.927 31.7217 17 31.7326C17.0722 31.7209 17.1433 31.7031 17.2125 31.6795C17.374 31.6306 17.5823 31.5499 17.8373 31.4287C18.3473 31.1886 18.9996 30.8125 19.7349 30.2961C21.5828 28.966 23.2209 27.3666 24.5948 25.551C27.8396 21.3074 30.5596 14.8601 29.3824 6.0265C29.3557 5.83686 29.2762 5.65856 29.1529 5.51199C29.0297 5.36543 28.8676 5.25653 28.6854 5.19775C27.302 4.74513 24.9666 4.00775 22.6568 3.38087C20.298 2.74125 18.1284 2.26737 17 2.26737C15.8738 2.26737 13.702 2.74125 11.3433 3.38087V3.37875ZM10.778 1.19C13.0836 0.563125 15.5338 0 17 0C18.4663 0 20.9164 0.563125 23.222 1.19C25.5808 1.8275 27.9586 2.58187 29.3569 3.03875C29.9415 3.23181 30.4598 3.58586 30.8522 4.06024C31.2446 4.53462 31.4953 5.11007 31.5754 5.7205C32.8419 15.2341 29.903 22.2849 26.3373 26.9493C24.8252 28.9446 23.0222 30.7017 20.9886 32.1619C20.2855 32.6672 19.5404 33.1115 18.7616 33.49C18.1666 33.7705 17.527 34 17 34C16.473 34 15.8355 33.7705 15.2384 33.49C14.4596 33.1115 13.7146 32.6672 13.0114 32.1619C10.9778 30.7016 9.17487 28.9445 7.66276 26.9493C4.09701 22.2849 1.15814 15.2341 2.42464 5.7205C2.50472 5.11007 2.75538 4.53462 3.14781 4.06024C3.54024 3.58586 4.05853 3.23181 4.64314 3.03875C6.67292 2.37322 8.71847 1.75679 10.778 1.19Z" fill="#B3C2CE"/>
<path d="M20.1875 13.8125C20.1878 14.472 19.9837 15.1153 19.6031 15.6538C19.2225 16.1923 18.6842 16.5996 18.0625 16.8194L18.8806 21.0481C18.9104 21.2019 18.9058 21.3604 18.8671 21.5122C18.8284 21.6641 18.7567 21.8054 18.657 21.9263C18.5573 22.0471 18.4321 22.1444 18.2904 22.2112C18.1486 22.2779 17.9939 22.3125 17.8373 22.3125H16.1628C16.0063 22.3122 15.8518 22.2774 15.7103 22.2105C15.5689 22.1436 15.4439 22.0462 15.3445 21.9254C15.245 21.8047 15.1734 21.6634 15.1349 21.5117C15.0963 21.3601 15.0918 21.2018 15.1215 21.0481L15.9375 16.8194C15.3866 16.6246 14.8999 16.2822 14.5304 15.8295C14.161 15.3768 13.9231 14.8313 13.8428 14.2525C13.7624 13.6738 13.8427 13.0841 14.0748 12.5478C14.307 12.0116 14.682 11.5495 15.159 11.2121C15.636 10.8746 16.1966 10.6747 16.7795 10.6343C17.3624 10.5939 17.9452 10.7145 18.4642 10.9829C18.9832 11.2513 19.4184 11.6572 19.7224 12.1562C20.0263 12.6552 20.1872 13.2282 20.1875 13.8125Z" fill="#B3C2CE"/>
</svg>
